# xmcd
#
# Track frame offsets:
#   150
#   12840
#   29735
#   42065
#   72145
#   93944
#   107108
#   121283
#   136797
#   149189
#   165188
#   179468
#   196904
#   216614
#   235093
#
# Disc length: 3313 seconds
#
# Revision: 0
# Processed by: cddbd v1.4PL0 Copyright (c) Steve Scherf et al.
# Submitted via: uFREEDB 1.6.0
#
DISCID=d30cef0f
DTITLE=Varios artistas - Baladas setentosas
DYEAR=1990
DGENRE=Classical
TTITLE0=Aquellos besos que te di
TTITLE1=Hoy te confieso
TTITLE2=La copa rota
TTITLE3=Laila
TTITLE4=Lo han visto con otra
TTITLE5=Madrigal
TTITLE6=Noelia
TTITLE7=O quizas te regale una rosa
TTITLE8=Pensar que tengo 20 años
TTITLE9=Penumbras
TTITLE10=Pobreza total
TTITLE11=Un gato en la oscuridad
TTITLE12=Un millon de amigos
TTITLE13=Y como es el 
TTITLE14=Yo quiero dibujarte
EXTD=
EXTT0=
EXTT1=
EXTT2=
EXTT3=
EXTT4=
EXTT5=
EXTT6=
EXTT7=
EXTT8=
EXTT9=
EXTT10=
EXTT11=
EXTT12=
EXTT13=
EXTT14=
PLAYORDER=
